<?xml version="1.0" standalone="no"?>
<!DOCTYPE svg PUBLIC "-//W3C//DTD SVG 1.1//EN" "http://www.w3.org/Graphics/SVG/1.1/DTD/svg11.dtd" >
<svg xmlns="http://www.w3.org/2000/svg">
<metadata></metadata>
<defs>
<font id="linearregular" horiz-adv-x="1024" >
<font-face units-per-em="2048" ascent="1638" descent="-410" />
<missing-glyph horiz-adv-x="430" />
<glyph horiz-adv-x="2048" />
<glyph horiz-adv-x="2048" />
<glyph unicode="&#xd;" horiz-adv-x="2048" />
<glyph unicode=" "  horiz-adv-x="430" />
<glyph unicode="&#x09;" horiz-adv-x="430" />
<glyph unicode="&#xa0;" horiz-adv-x="430" />
<glyph unicode="!" horiz-adv-x="360" d="M125 0h115v125h-115v-125zM125 356h115v940h-115v-940z" />
<glyph unicode="," horiz-adv-x="233" d="M41 -109h123q3 4 8 12.5t13 52t8 105.5l-3 64h-122q2 -5 2 -64q0 -60 -7 -102.5t-15 -54.5z" />
<glyph unicode="-" d="M305 457h432v118h-432v-118z" />
<glyph unicode="." horiz-adv-x="204" d="M41 0h123v125h-123v-125z" />
<glyph unicode="0" horiz-adv-x="1173" d="M102 649q0 -203 57 -353.5t165.5 -232.5t257.5 -83q224 1 351.5 181t127.5 488t-127.5 489.5t-351.5 182.5q-224 -1 -352 -182.5t-128 -489.5zM221 649q0 267 101 414t260 147t259.5 -146.5t100.5 -414.5q0 -267 -100.5 -413t-259.5 -146t-260 146t-101 413z" />
<glyph unicode="1" horiz-adv-x="727" d="M68 1067l84 -82l149 150v-1135h119v1300h-119z" />
<glyph unicode="2" horiz-adv-x="1058" d="M86 0h815v117h-696q0 34 6.5 65.5t22.5 61.5t30 53.5t44 52.5t48 46t57.5 47t58 43t63.5 44q30 21 84.5 55.5t86.5 55.5t74 57.5t65 70.5t39.5 84.5t16.5 109.5q0 154 -112 256t-293 102q-111 0 -215 -45t-185 -123l74 -90q155 143 328 143q130 0 205 -69t75 -176 q0 -36 -12.5 -69t-29 -56.5t-51.5 -53t-59.5 -46.5t-76.5 -51t-80 -54q-147 -102 -208 -161q-165 -157 -174 -366q-1 -14 -1 -28v-76z" />
<glyph unicode="3" horiz-adv-x="1142" d="M127 96l61 99q73 -56 147 -78.5t173 -22.5q87 0 163 33.5t125.5 102t49.5 157.5q0 121 -118 201t-302 80h-113v112h113q146 0 240 67t94 165q0 86 -75.5 140t-182.5 54q-143 0 -275 -86l-55 101q156 100 332 100q66 0 131 -18.5t121.5 -55t91.5 -98t35 -139.5 q0 -80 -55.5 -161.5t-149.5 -119.5q124 -29 207.5 -130t83.5 -212q0 -181 -129 -294t-334 -113q-123 0 -207 25.5t-172 90.5z" />
<glyph unicode="4" horiz-adv-x="1110" d="M80 338h592v-338h119v338h188v115h-188v847h-119v-4l-592 -843v-115zM229 453l443 637v-637h-443z" />
<glyph unicode="5" horiz-adv-x="1216" d="M111 184l84 86q159 -176 340 -176q148 0 248 101t100 258q0 89 -35.5 168t-110.5 132.5t-176 53.5q-60 0 -116 -15.5t-82.5 -29t-81.5 -45.5l-95 63l52 520h692v-114h-580l-33 -322q7 3 29.5 12.5t30.5 12.5t27.5 10.5t32.5 10t33.5 6t42 5t46.5 1.5q135 0 238.5 -66.5 t156 -172t52.5 -230.5q0 -209 -132.5 -341t-336.5 -132q-130 0 -232 51.5t-194 152.5z" />
<glyph unicode="6" horiz-adv-x="1056" d="M76 618q0 106 12 199t45 188.5t84.5 163t137 110t196.5 42.5q62 0 113.5 -9.5t94 -29.5t65.5 -33.5t57 -38.5l-68 -96q-40 29 -69 45.5t-82 31.5t-113 15q-81 0 -143 -29.5t-99 -74t-61 -108t-33 -120.5t-12 -122q54 76 150.5 123t187.5 47q85 0 162 -30t136.5 -86 t94.5 -144t35 -195q0 -138 -46.5 -246t-145.5 -174.5t-238 -66.5q-132 0 -222.5 42t-142.5 127t-74 198t-22 271zM205 438q2 -162 89 -253.5t245 -90.5q147 1 226 101.5t79 269.5q0 150 -80.5 246.5t-226.5 95.5q-141 -2 -238 -102t-94 -267z" />
<glyph unicode="7" horiz-adv-x="1089" d="M104 1184h652q-18 -38 -57.5 -123.5t-58 -125t-53 -117.5t-52 -121t-44.5 -114t-41 -118.5t-32 -113t-26.5 -118.5t-14.5 -114t-6 -119h123q0 59 7 121t14.5 113.5t29 122.5t34 115t47 126t51 121.5t62.5 136.5t64.5 135t75.5 152t77 155h-852v-114z" />
<glyph unicode="8" horiz-adv-x="1067" d="M31 377q0 121 59.5 210.5t161.5 143.5q-154 100 -154 270q0 76 35.5 138.5t93 101t125.5 59.5t137 21q159 0 270 -86.5t111 -233.5q0 -164 -151 -270q89 -50 154 -142t65 -212q0 -179 -123.5 -288t-325.5 -109q-206 0 -332 109.5t-126 287.5zM154 377q0 -88 49 -154.5 t124 -98t162 -30.5q156 1 241 76.5t85 206.5q0 127 -97 210t-229 83q-138 0 -236.5 -78.5t-98.5 -214.5zM221 1001q0 -110 72.5 -163.5t195.5 -53.5q107 0 183 57.5t76 159.5q0 47 -16.5 83.5t-43 59t-61.5 37.5t-69 20.5t-69 4.5q-33 -1 -66.5 -7t-70.5 -21t-65.5 -37 t-47 -58.5t-18.5 -81.5z" />
<glyph unicode="9" horiz-adv-x="1067" d="M76 836q0 138 46 246t144.5 174.5t237.5 66.5q106 0 185.5 -30t131.5 -83.5t84.5 -136t46 -180t13.5 -223.5q0 -104 -13.5 -197t-48 -185t-88 -158t-140.5 -107t-198 -41q-62 0 -114 9.5t-94 29t-65 33.5t-57 38l68 92q59 -42 118 -65t146 -23q81 0 144.5 28t102 71.5 t64.5 103.5t36.5 117.5t13.5 120.5q-53 -74 -148.5 -115t-189.5 -41q-85 0 -161.5 30t-135.5 86t-94 144t-35 195zM199 838q0 -150 79.5 -246.5t225.5 -95.5q68 1 128.5 24t106.5 66.5t72 111.5t25 152q-2 163 -89.5 261t-244.5 97q-147 -1 -225 -101t-78 -269z" />
<glyph unicode=":" horiz-adv-x="360" d="M119 0h123v125h-123v-125zM119 776h123v125h-123v-125z" />
<glyph unicode=";" horiz-adv-x="387" d="M109 -109h122q3 4 8 12.5t13 52t8 105.5l-2 64h-123q2 -5 2 -64q0 -60 -7 -102.5t-14 -54.5zM145 776h123v125h-123v-125z" />
<glyph unicode="A" horiz-adv-x="1116" d="M0 0l492 1298h133l497 -1298h-123l-157 414h-559l-160 -414h-123zM328 532h469l-240 605z" />
<glyph unicode="B" horiz-adv-x="1181" d="M143 0h428h41q230 0 359 87t129 275q0 107 -49 185.5t-138 124.5q144 81 144 280q0 346 -465 346h-449v-1298zM262 119v495h346q182 0 274.5 -69t92.5 -183q0 -243 -367 -243h-346zM262 733v447h346q324 0 324 -228q0 -111 -71 -163.5t-228 -55.5h-371z" />
<glyph unicode="C" horiz-adv-x="1099" d="M74 653q0 194 72.5 345.5t207 236t308.5 84.5q222 0 397 -88l-49 -115q-148 84 -344 84q-147 0 -256.5 -76t-163 -198.5t-53.5 -272.5q0 -118 29 -214.5t76.5 -158t110 -103.5t127 -59.5t130.5 -17.5q72 0 169.5 27t174.5 66l49 -119q-182 -92 -397 -92 q-122 0 -220.5 35.5t-166.5 97t-113.5 147t-66.5 183.5t-21 208z" />
<glyph unicode="D" horiz-adv-x="1261" d="M143 0h449q151 0 266.5 51t184.5 141.5t103 206t34 254.5q0 293 -161 469t-427 176h-449v-1298zM262 119v1061h326q148 0 257 -71t162.5 -189t53.5 -267q0 -118 -29.5 -212.5t-76 -153.5t-110 -98t-127 -54.5t-130.5 -15.5h-326z" />
<glyph unicode="E" horiz-adv-x="1005" d="M143 0h822v119h-703v493h703v119h-703v449h703v118h-822v-1298z" />
<glyph unicode="F" horiz-adv-x="1005" d="M143 0h119v612h703v119h-703v449h703v118h-822v-1298z" />
<glyph unicode="G" horiz-adv-x="1355" d="M100 670q0 131 41 249t116 207t187.5 141t247.5 52q117 0 200 -18t195 -70l-49 -113q-155 82 -348 82q-95 0 -180.5 -37.5t-150 -104.5t-102.5 -168t-38 -220q0 -259 122.5 -414.5t317.5 -155.5q29 0 56 2t75.5 12.5t88.5 28.5t85.5 55t76.5 87t52 128.5t21 176.5h-446 v119h563q2 -41 2 -80q0 -80 -9 -151q-15 -105 -45 -179t-76 -131t-97.5 -91.5t-113.5 -56.5t-118.5 -30t-118.5 -8q-254 0 -404.5 181.5t-150.5 506.5z" />
<glyph unicode="H" horiz-adv-x="1218" d="M143 0h119v592h737v-592h119v1298h-119v-587h-737v587h-119v-1298z" />
<glyph unicode="I" horiz-adv-x="405" d="M143 0h119v1298h-119v-1298z" />
<glyph unicode="J" horiz-adv-x="507" d="M10 -18q18 -2 49 -2q62 0 110.5 12t80 30.5t54.5 50t34.5 59.5t17.5 71.5t7.5 73.5t1.5 77v942h-119v-942q0 -53 -2.5 -85.5t-12.5 -68.5t-29.5 -55t-54.5 -32t-86 -13q-24 0 -36 2z" />
<glyph unicode="K" horiz-adv-x="1075" d="M143 0h119v510l184 178l484 -688h145l-540 776l530 524h-168l-635 -624v622h-119v-1298z" />
<glyph unicode="L" horiz-adv-x="970" d="M143 0h787v119h-668v1179h-119v-1298z" />
<glyph unicode="M" horiz-adv-x="1466" d="M143 0h119v1071l402 -635h127l413 635v-1071h119v1298h-119l-477 -741l-465 741h-119v-1298z" />
<glyph unicode="N" horiz-adv-x="1277" d="M143 0h119v1085l754 -1085h119v1298h-119v-1093l-754 1093h-119v-1298z" />
<glyph unicode="O" horiz-adv-x="1296" d="M82 651q0 -196 67 -347t196 -237.5t302 -86.5q261 0 414 186.5t153 484.5q0 195 -67 345t-196.5 236t-303.5 87q-173 -1 -302 -87t-196 -236.5t-67 -344.5zM201 649q0 112 28 210.5t81.5 175t139.5 121t193 44.5q111 0 199 -44.5t142.5 -121t83 -174.5t28.5 -211 q0 -111 -28 -208.5t-81.5 -173.5t-139.5 -121.5t-194 -47.5q-111 0 -199 44.5t-142 121.5t-82.5 175t-28.5 210z" />
<glyph unicode="P" horiz-adv-x="1097" d="M143 0h119v526h289q77 0 143.5 10.5t131 37.5t110 69.5t73 111t27.5 156.5q0 90 -27.5 159.5t-73 111.5t-110 69t-130.5 37t-144 10h-408v-1298zM262 645v535h285q86 0 147.5 -11t115 -39t81 -82.5t27.5 -136.5q0 -266 -371 -266h-285z" />
<glyph unicode="Q" horiz-adv-x="1337" d="M82 651q0 -196 67 -347t196 -237.5t302 -86.5q232 0 381 149l158 -149l84 83l-168 160q112 171 112 428q0 195 -67 345t-196.5 236t-303.5 87q-173 -1 -302 -87t-196 -236.5t-67 -344.5zM201 649q0 112 28 210.5t81.5 175t139.5 121t193 44.5q111 0 199 -44.5t142.5 -121 t83 -174.5t28.5 -211q0 -111 -28 -208.5t-81.5 -173.5t-139.5 -121.5t-194 -47.5q-111 0 -199 44.5t-142 121.5t-82.5 175t-28.5 210z" />
<glyph unicode="R" horiz-adv-x="1153" d="M143 0h119v553h289q82 0 145 8l260 -561h136l-277 592q221 81 221 342q0 103 -36.5 175.5t-106.5 113t-158 58t-205 17.5h-387v-1298zM262 672v508h285q201 0 286 -60t85 -186q0 -262 -371 -262h-285z" />
<glyph unicode="S" horiz-adv-x="1077" d="M82 172l63 109q0 -2 20 -20.5t58.5 -46t86 -53.5t111.5 -44.5t126 -18.5q55 0 109 12t105.5 38t83.5 74.5t32 113.5q0 43 -16 79t-37.5 59t-62 45.5t-69 34t-80.5 31t-77 29.5q-20 8 -58 23t-58.5 23.5t-55 24t-54 27.5t-47 30.5t-44 35.5t-35 41t-28 49.5t-16 58 t-6.5 68.5q0 80 33.5 143.5t89.5 101t122.5 56.5t137.5 19q103 0 209 -30.5t161 -60.5l54 -30l-66 -111q-7 5 -20 12.5t-53 27t-80.5 34.5t-97.5 27t-109 12q-44 0 -89 -12.5t-84 -36.5t-64 -64t-25 -90q0 -30 10 -57t24.5 -47.5t39 -40.5t46.5 -33t54 -27.5t54.5 -23 t55 -21t48.5 -18.5q15 -6 48.5 -19.5t53.5 -21.5t54 -23t55.5 -27.5t51 -32t48.5 -38t40 -43.5t32.5 -52t19.5 -60t8 -70q0 -87 -37 -156.5t-100 -113t-142.5 -66t-168.5 -22.5q-80 0 -157 20t-130.5 48t-95 56t-62.5 48z" />
<glyph unicode="T" horiz-adv-x="894" d="M-41 1180h434v-1180h119v1180h424v118h-977v-118z" />
<glyph unicode="U" horiz-adv-x="1300" d="M143 473v823h119v-813q0 -190 105 -287.5t282 -97.5t282 97.5t105 287.5v813h119v-823q0 -107 -30 -195t-90 -155.5t-158.5 -105t-227.5 -37.5t-227.5 37.5t-158.5 105t-90 155.5t-30 195z" />
<glyph unicode="V" horiz-adv-x="1236" d="M61 1296l496 -1296h129l496 1296h-129l-430 -1128l-430 1128h-132z" />
<glyph unicode="W" horiz-adv-x="1593" d="M82 1298h123l295 -1136l276 739h123l258 -739l303 1136h125l-358 -1298h-125l-266 709l-279 -709h-131z" />
<glyph unicode="X" horiz-adv-x="1261" d="M90 1296l471 -649l-469 -647h152l393 543l393 -543h152l-469 647l471 649h-152l-395 -544l-395 544h-152z" />
<glyph unicode="Y" d="M131 1296l447 -718v-578h118v578l445 718h-142l-362 -591l-365 591h-141z" />
<glyph unicode="Z" horiz-adv-x="1251" d="M154 0h950v119h-799l799 1057v120h-950v-118h798l-798 -1057v-121z" />
<glyph unicode="a" horiz-adv-x="882" d="M55 254q2 -126 80 -200t225 -74q158 0 304 104v-84h114v596q0 151 -87.5 238.5t-248.5 87.5q-86 0 -161 -24t-166 -71l43 -102q54 29 86.5 44t86 28.5t109.5 13.5q125 0 174.5 -61t49.5 -170v-52q-161 11 -246 11q-171 0 -267.5 -76t-95.5 -209zM174 258q0 84 73 127 t193 43q104 0 224 -12v-197q-78 -63 -142.5 -97.5t-136.5 -35.5h-12q-91 0 -143 44q-56 47 -56 128z" />
<glyph unicode="b" horiz-adv-x="1030" d="M184 0h115v92q64 -56 130 -84t157 -28q163 0 269 122.5t106 348.5t-106 348.5t-269 122.5q-91 0 -157 -28.5t-130 -84.5v491h-115v-1300zM299 238v426q144 147 264 147q76 0 133 -34t88 -89t45.5 -115t14.5 -122t-14.5 -122t-45.5 -115.5t-88 -89.5t-133 -34 q-119 0 -264 148z" />
<glyph unicode="c" horiz-adv-x="774" d="M70 451q0 113 33 205t88.5 148.5t124 87t143.5 30.5q85 0 146.5 -20t148.5 -68l-54 -103q-63 43 -114.5 61.5t-122.5 18.5q-67 0 -121.5 -33.5t-87 -87.5t-49.5 -115.5t-17 -123.5t17 -123.5t49.5 -115.5t87 -88t121.5 -34q48 0 87.5 10.5t63.5 23t86 48.5l54 -100 q-93 -54 -150.5 -73t-144.5 -19q-75 0 -143.5 30.5t-124 87t-88.5 148.5t-33 205z" />
<glyph unicode="d" horiz-adv-x="1030" d="M70 451q0 226 105.5 348.5t268.5 122.5q91 0 157 -28.5t130 -84.5v491h115v-1300h-115v92q-64 -56 -130 -84t-157 -28q-163 0 -268.5 122.5t-105.5 348.5zM186 451q0 -62 14.5 -122t45.5 -115.5t88 -89.5t133 -34q119 0 264 148v426q-144 147 -264 147q-76 0 -133 -34 t-88 -89t-45.5 -115t-14.5 -122z" />
<glyph unicode="e" horiz-adv-x="911" d="M70 451q0 -205 104.5 -338t284.5 -133q63 0 113.5 7.5t95.5 26t67 30.5t66 38l-56 98q-134 -90 -270 -90q-116 0 -195.5 86.5t-89.5 235.5h660q2 31 2 77q0 66 -13.5 127t-43 117t-72.5 98t-107 66.5t-141 24.5q-83 0 -153.5 -26.5t-128 -81t-90.5 -147.5t-33 -216z M193 522q15 144 88.5 216.5t193.5 72.5q114 0 181 -80.5t67 -208.5h-530z" />
<glyph unicode="f" horiz-adv-x="518" d="M20 793v108h164v137q0 83 24 140.5t69 88t98.5 43.5t122.5 13q56 0 104 -10l-18 -107q-44 8 -90 8q-96 0 -145.5 -42t-49.5 -144v-127h215l-2 -108h-213v-793h-115v793h-164z" />
<glyph unicode="g" horiz-adv-x="997" d="M70 446q0 -114 31 -204.5t84 -146.5t119.5 -85.5t141.5 -29.5q85 0 147 27t126 83v-123q0 -135 -64 -205.5t-211 -70.5q-72 0 -139.5 25.5t-114.5 62.5l-63 -94q131 -105 315 -105q192 0 292 97.5t100 289.5v934h-115v-96q-67 60 -126 88.5t-144 28.5q-74 0 -141.5 -31 t-121 -89t-85 -150t-31.5 -206zM188 446q0 60 17 122t48.5 117.5t86 90.5t121.5 35q65 0 127 -43t131 -117v-407q-75 -77 -135.5 -115.5t-128.5 -38.5q-67 0 -120.5 33.5t-84 87t-46.5 114t-16 121.5z" />
<glyph unicode="h" horiz-adv-x="1091" d="M184 0v1300h115v-507q170 129 318 129h4q135 -2 221 -80t86 -232v-610h-115v594q0 118 -53 167.5t-148 49.5q-19 0 -38.5 -3t-36 -7t-36 -13t-33 -15.5t-33.5 -19.5l-30 -19.5t-30 -22t-26.5 -21t-26.5 -22t-23 -19.5v-649h-115z" />
<glyph unicode="i" horiz-adv-x="483" d="M180 1133h123v124h-123v-124zM184 0h115v901h-115v-901z" />
<glyph unicode="j" horiz-adv-x="454" d="M-131 -410l18 111q44 -8 90 -8q96 0 145.5 42t49.5 144v1022h115v-1032q0 -67 -16.5 -118t-44.5 -83t-68.5 -52t-85.5 -28t-99 -8q-56 0 -104 10zM168 1133h123v124h-123v-124z" />
<glyph unicode="k" horiz-adv-x="878" d="M164 0v1300h115v-765l411 366h172l-375 -334l418 -567h-141l-363 492l-122 -111v-381h-115z" />
<glyph unicode="l" horiz-adv-x="483" d="M184 0h115v1300h-115v-1300z" />
<glyph unicode="m" horiz-adv-x="1564" d="M184 0v901h115v-104q71 62 132 93.5t142 31.5q94 0 158.5 -39.5t91.5 -106.5q37 34 48 43.5t46.5 36.5t60 36.5t65.5 19.5t85 10q129 0 201 -82.5t72 -225.5v-614h-115v594q0 115 -39.5 166t-134.5 51q-110 0 -262 -152l-2 -2q2 -14 2 -43v-614h-115v594 q0 112 -41.5 164.5t-136.5 52.5q-109 0 -258 -149v-662h-115z" />
<glyph unicode="n" horiz-adv-x="1091" d="M184 0v901h115v-108q170 129 318 129h4q135 -2 221 -80t86 -232v-610h-115v594q0 118 -53 167.5t-148 49.5q-19 0 -38.5 -3t-36 -7t-36 -13t-33 -15.5t-33.5 -19.5l-30 -19.5t-30 -22t-26.5 -21t-26.5 -22t-23 -19.5v-649h-115z" />
<glyph unicode="o" horiz-adv-x="958" d="M72 451q0 215 108.5 343t300.5 128q190 0 298 -128t108 -343t-108 -343t-298 -128q-192 0 -300.5 128t-108.5 343zM190 451q0 -167 78.5 -264t210.5 -97t210.5 97t78.5 264t-78 263.5t-211 96.5t-211 -96.5t-78 -263.5z" />
<glyph unicode="p" horiz-adv-x="989" d="M143 -399v1300h115v-92q64 56 130 84.5t157 28.5q163 0 269 -122.5t106 -348.5t-106 -348.5t-269 -122.5q-91 0 -157 28t-130 84v-491h-115zM260 238q145 -148 264 -148q76 0 133 34t88 89.5t45.5 115.5t14.5 122t-14.5 122t-45.5 115t-88 89t-133 34q-120 0 -264 -147 v-426z" />
<glyph unicode="q" horiz-adv-x="989" d="M70 451q0 -226 105.5 -348.5t268.5 -122.5q91 0 157 28t130 84v-491h115v1300h-115v-92q-64 56 -130 84.5t-157 28.5q-163 0 -268.5 -122.5t-105.5 -348.5zM184 451q0 62 14.5 122t45.5 115t88 89t133 34q120 0 264 -147v-426q-145 -148 -264 -148q-76 0 -133 34 t-88 89.5t-45.5 115.5t-14.5 122z" />
<glyph unicode="r" horiz-adv-x="612" d="M143 0h115v664q144 147 264 147q48 0 94 -16l37 110q-60 17 -108 17q-91 0 -157 -28.5t-130 -84.5v92h-115v-901z" />
<glyph unicode="s" horiz-adv-x="831" d="M63 111l60 98q50 -42 133.5 -80.5t167.5 -38.5q60 0 110 14t84 48q36 36 35 87q1 70 -53 105q-54 36 -186 66q-167 37 -247.5 97.5t-80.5 180.5q0 59 29 105.5t76 73.5t101 41t111 14q101 0 183 -32.5t129 -68.5l-60 -98q-36 30 -106 59t-148 29q-24 0 -52.5 -5t-63 -17 t-57.5 -39.5t-23 -65.5t18 -66t54 -47t70 -30.5t87 -25.5q18 -4 27 -7q124 -33 162 -50q128 -56 146 -174q3 -21 3 -44q0 -121 -98 -190.5t-250 -69.5q-111 0 -207 41.5t-154 89.5z" />
<glyph unicode="t" horiz-adv-x="563" d="M20 793h164v-500v-8q0 -69 18 -121q18 -54 46 -85t70 -49.5t79.5 -24t83.5 -5.5q21 0 49 4l-12 113l-41 -2q-91 0 -134.5 43.5t-43.5 138.5v496h205v108h-205v354l-115 -16v-338h-164v-108z" />
<glyph unicode="u" horiz-adv-x="1091" d="M164 291v610h115v-594q0 -118 52.5 -167.5t147.5 -49.5q19 0 38.5 3.5t35.5 7t37 13t33 15t33.5 19.5t30 19t30.5 22.5t26 21t26.5 22t23.5 19.5v649h114v-901h-114v109q-170 -129 -318 -129h-4q-135 2 -221 79.5t-86 231.5z" />
<glyph unicode="v" horiz-adv-x="870" d="M20 901l353 -901h119l358 901h-125l-291 -745l-287 745h-127z" />
<glyph unicode="w" horiz-adv-x="1314" d="M20 901h123l224 -770l229 770h123l211 -758l241 758h123l-299 -901h-135l-205 711l-223 -711h-131z" />
<glyph unicode="x" horiz-adv-x="913" d="M20 0h142l266 369l281 -369h143l-346 459l317 442h-141l-244 -350l-248 350h-141l313 -440z" />
<glyph unicode="y" horiz-adv-x="878" d="M20 901h127l306 -754l278 754h127l-498 -1300h-124l157 397z" />
<glyph unicode="z" horiz-adv-x="800" d="M41 0v106l567 685h-567v110h719v-113l-565 -677h563v-111h-717z" />
<glyph unicode="&#xad;" d="M305 457h432v118h-432v-118z" />
<glyph unicode="&#x2000;" horiz-adv-x="682" />
<glyph unicode="&#x2001;" horiz-adv-x="1365" />
<glyph unicode="&#x2002;" horiz-adv-x="682" />
<glyph unicode="&#x2003;" horiz-adv-x="1365" />
<glyph unicode="&#x2004;" horiz-adv-x="455" />
<glyph unicode="&#x2005;" horiz-adv-x="341" />
<glyph unicode="&#x2006;" horiz-adv-x="227" />
<glyph unicode="&#x2007;" horiz-adv-x="227" />
<glyph unicode="&#x2008;" horiz-adv-x="170" />
<glyph unicode="&#x2009;" horiz-adv-x="273" />
<glyph unicode="&#x200a;" horiz-adv-x="75" />
<glyph unicode="&#x2010;" d="M305 457h432v118h-432v-118z" />
<glyph unicode="&#x2011;" d="M305 457h432v118h-432v-118z" />
<glyph unicode="&#x2012;" d="M305 457h432v118h-432v-118z" />
<glyph unicode="&#x2013;" horiz-adv-x="1616" d="M305 457h1024v118h-1024v-118z" />
<glyph unicode="&#x2014;" horiz-adv-x="2640" d="M305 457h2048v118h-2048v-118z" />
<glyph unicode="&#x201c;" />
<glyph unicode="&#x201d;" />
<glyph unicode="&#x202f;" horiz-adv-x="273" />
<glyph unicode="&#x205f;" horiz-adv-x="341" />
<glyph unicode="&#x25fc;" horiz-adv-x="901" d="M0 0v901h901v-901h-901z" />
</font>
</defs>
</svg>
